<svg width="89" height="88" viewBox="0 0 89 88" fill="none" xmlns="http://www.w3.org/2000/svg">
<g clip-path="url(#clip0_118_4174)">
<path d="M0.5 76.2821C0.5 82.4781 5.58028 87.5 11.8468 87.5H77.1528C83.4204 87.5 88.5 82.4774 88.5 76.2821V11.7182C88.5 5.52187 83.4197 0.5 77.1532 0.5H11.8472C5.57959 0.5 0.5 5.52255 0.5 11.7179V76.2818V76.2821Z" fill="#563D7C"/>
<path d="M36.9919 38.9832V26.6629H47.9613C49.0063 26.6629 50.0135 26.7489 50.9836 26.9212C51.9536 27.0931 52.812 27.4003 53.5583 27.8431C54.3042 28.286 54.9013 28.9007 55.3492 29.6875C55.7968 30.4746 56.0209 31.4829 56.0209 32.7121C56.0209 34.9255 55.3492 36.5241 54.0058 37.5076C52.6628 38.4915 50.9464 38.9832 48.8568 38.9832H36.9919V38.9832ZM25.2759 17.6621V70.3379H51.0956C53.4837 70.3379 55.8095 70.0429 58.0731 69.4526C60.3367 68.8623 62.3514 67.9525 64.1176 66.723C65.8834 65.4934 67.289 63.907 68.3337 61.9645C69.3787 60.0216 69.9008 57.7222 69.9008 55.0663C69.9008 51.7709 69.0923 48.9553 67.4757 46.6192C65.8587 44.2828 63.4084 42.6474 60.1249 41.7129C62.5129 40.5819 64.3166 39.1307 65.5355 37.3601C66.7541 35.5895 67.3636 33.3765 67.3636 30.7203C67.3636 28.2612 66.9532 26.1956 66.1323 24.5232C65.3114 22.8512 64.1547 21.5108 62.6621 20.5025C61.1699 19.4942 59.379 18.7686 57.2893 18.3262C55.2 17.8833 52.8866 17.6621 50.3494 17.6621H25.2759V17.6621ZM36.9919 61.3371V46.8771H49.7523C52.2895 46.8771 54.3293 47.4548 55.8717 48.611C57.4138 49.7668 58.1851 51.6971 58.1851 54.4023C58.1851 55.7797 57.9486 56.9107 57.476 57.796C57.0033 58.6813 56.3691 59.3823 55.573 59.8986C54.7772 60.4151 53.8566 60.7839 52.812 61.0054C51.767 61.2263 50.6728 61.3371 49.5285 61.3371H36.9919V61.3371Z" fill="white"/>
</g>
<defs>
<clipPath id="clip0_118_4174">
<rect width="88" height="87" fill="white" transform="translate(0.5 0.5)"/>
</clipPath>
</defs>
</svg>
