<svg width="121" height="120" viewBox="0 0 121 120" fill="none" xmlns="http://www.w3.org/2000/svg">
<path d="M22.6325 101.654L14.21 7.9375H106.79L98.3562 101.639L60.4437 112.062L22.6325 101.654Z" fill="#1572B6"/>
<path d="M60.5 104.097L91.1375 95.674L98.345 15.6019H60.5V104.097Z" fill="#1F9CF0"/>
<path d="M60.5 49.554H75.8375L76.895 37.7842H60.5V26.2896H89.5625L89.285 29.3724L86.4387 61.0487H60.5V49.554Z" fill="white"/>
<path d="M60.5711 79.4045L60.5186 79.4193L47.6112 75.9609L46.7862 66.7942H35.1499L36.7737 84.8413L60.5149 91.3788L60.5711 91.364V79.4045V79.4045Z" fill="#EBEBEB"/>
<path d="M74.8513 60.5615L73.4563 75.9534L60.53 79.4119V91.3714L84.29 84.8412L84.4663 82.9001L86.48 60.5615H74.8513V60.5615Z" fill="white"/>
<path d="M60.5411 26.2896V37.7842H32.5436L32.3111 35.1997L31.7824 29.3724L31.5049 26.2896H60.5411V26.2896ZM60.4999 49.554V61.0487H47.7536L47.5211 58.4642L46.9961 52.6369L46.7186 49.554H60.4999V49.554Z" fill="#EBEBEB"/>
</svg>
