<svg width="114" height="102" viewBox="0 0 114 102" fill="none" xmlns="http://www.w3.org/2000/svg">
<g clip-path="url(#clip0_118_4170)">
<path d="M93.4055 33.2027C92.203 32.7886 90.9903 32.4051 89.7686 32.0523C89.9738 31.2106 90.1627 30.3791 90.3304 29.5623C93.0837 16.1483 91.2838 5.34178 85.1359 1.78375C79.2415 -1.62722 69.6015 1.92949 59.8658 10.4334C58.9063 11.273 57.9681 12.1368 57.052 13.024C56.4388 12.434 55.8148 11.8556 55.1802 11.2888C44.9766 2.19616 34.7492 -1.63608 28.608 1.93215C22.7188 5.35374 20.9749 15.5127 23.4537 28.2254C23.7003 29.4844 23.9787 30.737 24.2887 31.9819C22.841 32.3947 21.4441 32.8342 20.1072 33.3019C8.14431 37.4881 0.504639 44.0483 0.504639 50.8529C0.504639 57.8808 8.70617 64.93 21.166 69.2043C22.1762 69.5495 23.1947 69.8692 24.2208 70.1634C23.8875 71.5042 23.5917 72.854 23.3336 74.2114C20.9705 86.7035 22.8159 96.6223 28.6892 100.022C34.7554 103.533 44.9369 99.9247 54.8505 91.2268C55.6544 90.5196 56.4406 89.7925 57.2083 89.046C58.2003 90.0066 59.2188 90.9393 60.2626 91.843C69.8659 100.136 79.35 103.485 85.2176 100.076C91.2781 96.555 93.2479 85.8995 90.6906 72.9356C90.4891 71.92 90.2632 70.9094 90.0131 69.9047C90.7281 69.6921 91.4299 69.4732 92.114 69.2455C105.067 64.9384 113.495 57.9747 113.495 50.8529C113.495 44.0235 105.609 37.419 93.4055 33.2027V33.2027ZM90.5961 64.6474C89.9782 64.8525 89.3444 65.0505 88.6982 65.2432C87.2682 60.6995 85.3385 55.8684 82.9768 50.8764C85.2304 46.0036 87.0859 41.234 88.4758 36.72C89.6317 37.0558 90.7533 37.4097 91.8346 37.7832C102.291 41.3961 108.668 46.7372 108.668 50.8529C108.668 55.2367 101.78 60.9277 90.5961 64.6474V64.6474ZM85.9556 73.8765C87.0864 79.6087 87.2475 84.7916 86.4985 88.8435C85.8258 92.4844 84.4726 94.9115 82.7989 95.8839C79.2384 97.9526 71.6234 95.2637 63.4108 88.1706C62.44 87.3305 61.4926 86.4634 60.5698 85.5703C63.7538 82.0756 66.9356 78.0131 70.0411 73.5008C75.5035 73.0144 80.664 72.2188 85.3438 71.1331C85.5693 72.0426 85.7732 72.9573 85.9556 73.8765V73.8765ZM39.0256 95.5264C35.5467 96.7592 32.7758 96.7946 31.1008 95.8254C27.5368 93.7624 26.0551 85.798 28.0761 75.1151C28.3164 73.8527 28.5914 72.5972 28.901 71.3502C33.5292 72.3779 38.6522 73.1168 44.1274 73.5624C47.2541 77.9776 50.5277 82.0358 53.827 85.5894C53.1258 86.2703 52.4081 86.9338 51.6744 87.5793C47.2903 91.4252 42.8973 94.154 39.0256 95.5264V95.5264ZM22.7276 64.6204C17.218 62.7302 12.6679 60.2738 9.54919 57.5933C6.74649 55.1848 5.3319 52.7932 5.3319 50.8529C5.3319 46.7234 11.4656 41.4564 21.6961 37.8766C22.9377 37.4425 24.2371 37.0327 25.5855 36.6482C26.9996 41.2641 28.8543 46.0904 31.0924 50.9707C28.8251 55.9233 26.944 60.8267 25.5162 65.497C24.5796 65.2278 23.6498 64.9355 22.7276 64.6204V64.6204ZM28.1909 27.2947C26.0674 16.4031 27.4776 8.18706 31.0267 6.12497C34.8066 3.92867 43.1652 7.06011 51.9754 14.9115C52.5499 15.4247 53.1151 15.9482 53.6707 16.4819C50.3878 20.02 47.1442 24.048 44.0453 28.4371C38.7312 28.9315 33.6444 29.7253 28.9677 30.7889C28.6795 29.631 28.4205 28.4661 28.1909 27.2951V27.2947ZM76.93 39.3739C75.8254 37.4589 74.6797 35.5679 73.4939 33.7024C77.099 34.16 80.5532 34.7673 83.7968 35.5098C82.8232 38.6425 81.6094 41.9175 80.1807 45.2753C79.1364 43.2867 78.0526 41.3191 76.93 39.3739V39.3739ZM57.0542 19.9443C59.2805 22.3652 61.5103 25.0678 63.7035 28.0003C59.2545 27.7894 54.798 27.7886 50.349 27.9977C52.5443 25.0922 54.7931 22.3931 57.0542 19.9443ZM37.0509 39.4071C35.9424 41.3367 34.8788 43.292 33.8612 45.2713C32.4558 41.9255 31.2531 38.6355 30.2711 35.4584C33.4948 34.7346 36.9326 34.1427 40.5148 33.6935C39.3158 35.5705 38.1608 37.4754 37.0509 39.4067V39.4071ZM40.6176 68.3569C36.9168 67.9423 33.4273 67.381 30.2044 66.6767C31.2019 63.4429 32.4311 60.0829 33.8669 56.6653C34.8886 58.6461 35.9566 60.6026 37.0699 62.533C38.2148 64.5176 39.4003 66.4614 40.6176 68.3569ZM57.1875 82.1027C54.8995 79.6255 52.6176 76.8848 50.3891 73.9372C52.5527 74.0222 54.7582 74.0656 57 74.0656C59.303 74.0656 61.5796 74.0138 63.8204 73.9137C61.6202 76.9145 59.3988 79.6592 57.1875 82.1027ZM80.2262 56.4907C81.7365 59.946 83.0094 63.2883 84.0202 66.4667C80.7443 67.2171 77.2072 67.8214 73.4803 68.2701C74.6745 66.3699 75.831 64.4461 76.949 62.4998C78.0857 60.5214 79.1783 58.5179 80.2262 56.4907V56.4907ZM72.7679 60.0794C71.0563 63.0634 69.2486 65.9909 67.3474 68.8571C63.9037 69.1018 60.4523 69.2234 57 69.2216C53.4836 69.2216 50.0634 69.1118 46.7699 68.8974C44.8191 66.0378 42.9769 63.1053 41.247 60.1059H41.2475C39.5258 57.1225 37.9176 54.0745 36.4264 50.9685C37.9138 47.8618 39.5171 44.8124 41.2329 41.8267L41.2325 41.8271C42.9476 38.8407 44.7752 35.9206 46.7112 33.0734C50.0713 32.8182 53.5171 32.6853 56.9995 32.6853H57C60.4983 32.6853 63.9484 32.8195 67.3077 33.0765C69.2242 35.9195 71.0401 38.8295 72.752 41.801C74.4735 44.7801 76.098 47.8147 77.623 50.8999C76.1137 54.0166 74.4943 57.0783 72.7679 60.0794V60.0794ZM82.7252 5.98056C86.5086 8.17067 87.9801 17.0024 85.6029 28.5842C85.4511 29.3231 85.2807 30.0757 85.0953 30.839C80.4071 29.7528 75.3168 28.9452 69.9873 28.4433C66.8827 24.006 63.6655 19.9717 60.436 16.4792C61.2824 15.6604 62.1489 14.8628 63.0348 14.0871C71.3767 6.80141 79.173 3.92468 82.7252 5.98056V5.98056ZM57 40.7263C62.5723 40.7263 67.0897 45.2603 67.0897 50.8529C67.0897 56.4456 62.5723 60.9795 57 60.9795C51.4277 60.9795 46.9102 56.4456 46.9102 50.8529C46.9102 45.2603 51.4277 40.7263 57 40.7263V40.7263Z" fill="#00D8FF"/>
</g>
<defs>
<clipPath id="clip0_118_4170">
<rect width="113" height="101" fill="white" transform="translate(0.5 0.5)"/>
</clipPath>
</defs>
</svg>
