<svg width="121" height="120" viewBox="0 0 121 120" fill="none" xmlns="http://www.w3.org/2000/svg">
<path d="M22.6325 102.004L14.2063 7.5H106.794L98.3563 101.989L60.4438 112.5L22.6325 102.004Z" fill="#DE4C36"/>
<path d="M60.5 104.468L91.1375 95.9738L98.345 15.2288H60.5V104.468Z" fill="#DE4C36"/>
<path d="M60.5 50.2762H45.1625L44.105 38.4075H60.5V26.8162H31.4375L31.715 29.9287L34.5613 61.8675H60.5V50.2762V50.2762ZM60.5 80.3775L60.4475 80.3925L47.54 76.9087L46.715 67.665H35.0787L36.7025 85.86L60.4475 92.4525L60.5 92.4375V80.3775Z" fill="#EBEBEB"/>
<path d="M60.4587 50.2762V61.8675H74.7312L73.3887 76.9012L60.4587 80.3887V92.4487L84.2225 85.86L84.395 83.9025L87.1175 53.3887L87.4025 50.2762H60.4587V50.2762ZM60.4587 26.8162V38.4075H88.4562L88.6887 35.805L89.2175 29.9287L89.495 26.8162H60.4587V26.8162Z" fill="white"/>
</svg>
