<svg width="121" height="120" viewBox="0 0 121 120" fill="none" xmlns="http://www.w3.org/2000/svg">
<path d="M8 7.5H113V112.5H8V7.5Z" fill="#F5DE19"/>
<path d="M78.5338 89.5313C79.4284 91.3485 80.8183 92.8759 82.5434 93.9375C84.2684 94.9991 86.2584 95.5515 88.2838 95.5313C92.3713 95.5313 94.985 93.4875 94.985 90.6562C94.985 87.2812 92.3 86.0738 87.8 84.105L85.3325 83.0475C78.2075 80.0138 73.4825 76.215 73.4825 68.1825C73.4825 60.7838 79.1075 55.1475 87.9313 55.1475C90.7877 54.9412 93.6416 55.5805 96.137 56.9856C98.6324 58.3907 100.659 60.4994 101.964 63.0488L94.25 67.98C93.7476 66.716 92.8728 65.6345 91.7416 64.879C90.6105 64.1236 89.2764 63.7298 87.9163 63.75C87.3229 63.6906 86.7236 63.7555 86.1567 63.9404C85.5897 64.1254 85.0675 64.4265 84.6234 64.8244C84.1792 65.2224 83.8228 65.7085 83.5769 66.2518C83.331 66.7951 83.2009 67.3837 83.195 67.98C83.195 70.9388 85.0288 72.1388 89.2625 73.98L91.73 75.0375C100.115 78.6338 104.855 82.2975 104.855 90.5363C104.855 99.42 97.8763 104.287 88.505 104.287C84.8537 104.52 81.213 103.691 78.0223 101.901C74.8317 100.11 72.2274 97.4342 70.5238 94.1962L78.5338 89.5313ZM43.6775 90.3863C45.2263 93.135 46.6363 95.46 50.0263 95.46C53.2663 95.46 55.3138 94.1925 55.3138 89.2612V55.71H65.18V89.3925C65.18 99.6075 59.18 104.258 50.4463 104.258C47.3591 104.426 44.2931 103.657 41.6513 102.051C39.0096 100.444 36.9157 98.0761 35.645 95.2575L43.6775 90.3863Z" fill="black"/>
</svg>
